<?xml version="1.0" encoding="UTF-8" standalone="no"?>
<!-- Created with Inkscape (http://www.inkscape.org/) -->

<svg
   width="210mm"
   height="100mm"
   viewBox="0 0 210 100"
   version="1.1"
   id="svg5"
   inkscape:version="1.1.1 (3bf5ae0d25, 2021-09-20)"
   sodipodi:docname="Drone_logos.svg"
   xmlns:inkscape="http://www.inkscape.org/namespaces/inkscape"
   xmlns:sodipodi="http://sodipodi.sourceforge.net/DTD/sodipodi-0.dtd"
   xmlns="http://www.w3.org/2000/svg"
   xmlns:svg="http://www.w3.org/2000/svg">
  <sodipodi:namedview
     id="namedview7"
     pagecolor="#ffffff"
     bordercolor="#666666"
     borderopacity="1.0"
     inkscape:pageshadow="2"
     inkscape:pageopacity="0.0"
     inkscape:pagecheckerboard="0"
     inkscape:document-units="mm"
     showgrid="false"
     height="100mm"
     inkscape:zoom="0.70710678"
     inkscape:cx="70.003571"
     inkscape:cy="420.72853"
     inkscape:window-width="1920"
     inkscape:window-height="1009"
     inkscape:window-x="-8"
     inkscape:window-y="-8"
     inkscape:window-maximized="1"
     inkscape:current-layer="g15" />
  <defs
     id="defs2">
    <clipPath
       clipPathUnits="userSpaceOnUse"
       id="clipPath37">
      <path
         d="M 0,500 H 500 V 0 H 0 Z"
         id="path35" />
    </clipPath>
    <clipPath
       clipPathUnits="userSpaceOnUse"
       id="clipPath95">
      <path
         d="M 0,500 H 500 V 0 H 0 Z"
         id="path93" />
    </clipPath>
    <clipPath
       clipPathUnits="userSpaceOnUse"
       id="clipPath207">
      <path
         d="M 0,500 H 500 V 0 H 0 Z"
         id="path205" />
    </clipPath>
    <clipPath
       clipPathUnits="userSpaceOnUse"
       id="clipPath239">
      <path
         d="M 0,500 H 500 V 0 H 0 Z"
         id="path237" />
    </clipPath>
  </defs>
  <g
     inkscape:label="Laag 1"
     inkscape:groupmode="layer"
     id="layer1">
    <g
       id="g15"
       inkscape:label="4877211"
       transform="matrix(0.35277777,0,0,-0.35277777,17.773651,212.90596)">
      <text
         transform="scale(0.9486833,-1.0540926)"
         style="font-variant:normal;font-weight:500;font-stretch:normal;font-size:30.3579px;font-family:'Montserrat Medium';-inkscape-font-specification:Montserrat-Medium;writing-mode:lr-tb;fill:#15aee5;fill-opacity:1;fill-rule:nonzero;stroke:none;stroke-width:0.948683"
         id="text21"
         x="-561.52374"
         y="-355.41537"><tspan
           x="-561.52374 -539.45355 -520.87457 -508.79211"
           y="-355.41537"
           sodipodi:role="line"
           id="tspan19"
           style="stroke-width:0.948683">Aero</tspan></text>
      <text
         transform="scale(0.9486833,-1.0540926)"
         style="font-variant:normal;font-weight:bold;font-stretch:normal;font-size:30.3579px;font-family:Montserrat;-inkscape-font-specification:Montserrat-Bold;writing-mode:lr-tb;fill:#1f3b4f;fill-opacity:1;fill-rule:nonzero;stroke:none;stroke-width:0.948683"
         id="text25"
         x="-489.51486"
         y="-355.41537"><tspan
           x="-489.51486 -468.50723 -455.69623 -435.8118 -414.65237"
           y="-355.41537"
           sodipodi:role="line"
           id="tspan23"
           style="stroke-width:0.948683">drone</tspan></text>
      <text
         transform="scale(0.9486833,-1.0540926)"
         style="font-variant:normal;font-weight:normal;font-stretch:normal;font-size:10.4355px;font-family:Montserrat;-inkscape-font-specification:Montserrat-Regular;writing-mode:lr-tb;fill:#808184;fill-opacity:1;fill-rule:nonzero;stroke:none;stroke-width:0.948683"
         id="text29"
         x="-540.65399"
         y="-339.55777"><tspan
           x="-540.65399 -534.33002 -526.06512 -516.81927 -511.92499 -507.03073 -497.85791 -489.46774 -484.64655 -475.4007 -466.77051 -458.38037 -451.19028 -446.36908 -437.19626 -428.80609 -422.67001"
           y="-339.55777"
           sodipodi:role="line"
           id="tspan27"
           style="stroke-width:0.948683">tagline goes here</tspan></text>
      <g
         id="g31"
         transform="translate(-586.54509,68.942913)">
        <g
           id="g33"
           clip-path="url(#clipPath37)">
          <g
             id="g39"
             transform="translate(66.7959,403.9346)">
            <path
               d="m 0,0 c 0.021,0.083 0.052,0.164 0.052,0.254 v 7.339 c 0,0.59 -0.483,1.074 -1.073,1.074 h -2.54 c -0.588,0 -1.073,-0.484 -1.073,-1.074 V 0.254 c 0,-0.09 0.03,-0.171 0.052,-0.254 H -7.08 c 0,0 -0.13,-9.91 0.457,-16.936 0.585,-7.027 4.333,-6.748 4.333,-6.748 0,0 3.746,-0.279 4.333,6.748 C 2.628,-9.91 2.498,0 2.498,0 Z"
               style="fill:#1f3b4f;fill-opacity:1;fill-rule:nonzero;stroke:none"
               id="path41" />
          </g>
          <g
             id="g43"
             transform="translate(37.0098,406.9268)">
            <path
               d="m 0,0 c -5.347,-0.873 8.947,-3.492 13.748,-3.928 4.801,-0.436 7.856,4.801 7.856,4.801 C 22.81,2.489 5.347,0.873 0,0"
               style="fill:#15aee5;fill-opacity:1;fill-rule:nonzero;stroke:none"
               id="path45" />
          </g>
          <g
             id="g47"
             transform="translate(78.5537,402.999)">
            <path
               d="M 0,0 C 4.801,0.436 19.095,3.055 13.748,3.928 8.401,4.801 -9.062,6.417 -7.856,4.801 -7.856,4.801 -4.801,-0.436 0,0"
               style="fill:#15aee5;fill-opacity:1;fill-rule:nonzero;stroke:none"
               id="path49" />
          </g>
          <g
             id="g51"
             transform="translate(202.7959,403.9346)">
            <path
               d="m 0,0 c 0.021,0.083 0.052,0.164 0.052,0.254 v 7.339 c 0,0.59 -0.483,1.074 -1.073,1.074 h -2.54 c -0.588,0 -1.073,-0.484 -1.073,-1.074 V 0.254 c 0,-0.09 0.03,-0.171 0.052,-0.254 H -7.08 c 0,0 -0.13,-9.91 0.457,-16.936 0.585,-7.027 4.333,-6.748 4.333,-6.748 0,0 3.746,-0.279 4.333,6.748 C 2.628,-9.91 2.498,0 2.498,0 Z"
               style="fill:#1f3b4f;fill-opacity:1;fill-rule:nonzero;stroke:none"
               id="path53" />
          </g>
          <g
             id="g55"
             transform="translate(173.0098,406.9268)">
            <path
               d="m 0,0 c -5.347,-0.873 8.947,-3.492 13.748,-3.928 4.801,-0.436 7.856,4.801 7.856,4.801 C 22.81,2.489 5.347,0.873 0,0"
               style="fill:#15aee5;fill-opacity:1;fill-rule:nonzero;stroke:none"
               id="path57" />
          </g>
          <g
             id="g59"
             transform="translate(228.3018,406.9268)">
            <path
               d="m 0,0 c -5.347,0.873 -22.81,2.489 -21.604,0.873 0,0 3.055,-5.237 7.856,-4.801 C -8.947,-3.492 5.347,-0.873 0,0"
               style="fill:#15aee5;fill-opacity:1;fill-rule:nonzero;stroke:none"
               id="path61" />
          </g>
          <path
             d="m 117.354,354.652 h 3.563 v 7.231 h -3.563 z"
             style="fill:#15aee5;fill-opacity:1;fill-rule:nonzero;stroke:none"
             id="path63" />
          <path
             d="m 144.394,354.652 h 3.563 v 7.231 h -3.563 z"
             style="fill:#15aee5;fill-opacity:1;fill-rule:nonzero;stroke:none"
             id="path65" />
          <g
             id="g67"
             transform="translate(139.0039,358.3071)">
            <path
               d="m 0,0 c 0,-3.506 -2.843,-6.349 -6.349,-6.349 -3.506,0 -6.348,2.843 -6.348,6.349 0,3.506 2.842,6.349 6.348,6.349 C -2.843,6.349 0,3.506 0,0 m 42.818,39.858 c -7.833,0.5 -20.166,0.833 -26.5,3 -6.334,2.167 -17.167,5.833 -22.667,5.666 -5.5,0.167 -16.333,-3.499 -22.667,-5.666 -6.334,-2.167 -18.667,-2.5 -26.5,-3 -7.833,-0.5 -10.167,-2 -9.667,-4.167 0.5,-2.166 6.334,-3.833 10.834,-3.833 4.5,0 14.666,-3.5 15.666,-8.167 1,-4.666 -2.333,-12.333 -6,-19.5 -3.667,-7.166 -2.166,-8.833 4,-5.833 6.166,3 7.334,15.333 11.334,20.5 4,5.166 9.666,1.666 9.666,1.666 v -3 c 0,-2.167 -0.833,-1.666 2,-3.333 1.469,-0.864 4.458,-1.099 7,-1.127 V 8.858 h 1.138 V 7.455 h -5.325 c -1.135,0 -2.064,-0.929 -2.064,-2.064 V -5.888 c 0,-1.135 0.929,-2.064 2.064,-2.064 H 2.172 c 1.135,0 2.063,0.929 2.063,2.064 V 5.391 c 0,1.135 -0.928,2.064 -2.063,2.064 h -5.325 v 1.403 h 1.138 v 4.206 c 2.542,0.028 5.532,0.263 7,1.127 2.833,1.667 2,1.166 2,3.333 v 3 c 0,0 5.666,3.5 9.666,-1.666 4,-5.167 5.168,-17.5 11.334,-20.5 6.166,-3 7.667,-1.333 4,5.833 -3.667,7.167 -7,14.834 -6,19.5 1,4.667 11.166,8.167 15.666,8.167 4.5,0 10.334,1.667 10.834,3.833 0.5,2.167 -1.834,3.667 -9.667,4.167"
               style="fill:#1f3b4f;fill-opacity:1;fill-rule:nonzero;stroke:none"
               id="path69" />
          </g>
          <g
             id="g71"
             transform="translate(134.7363,358.5278)">
            <path
               d="m 0,0 c -1.115,0 -2.018,0.903 -2.018,2.018 0,0.664 0.326,1.248 0.821,1.615 -0.285,0.066 -0.579,0.107 -0.884,0.107 -2.189,0 -3.961,-1.773 -3.961,-3.961 0,-2.187 1.772,-3.96 3.961,-3.96 2.187,0 3.961,1.773 3.961,3.96 C 1.88,0.181 1.803,0.56 1.691,0.925 1.332,0.37 0.71,0 0,0"
               style="fill:#1f3b4f;fill-opacity:1;fill-rule:nonzero;stroke:none"
               id="path73" />
          </g>
        </g>
      </g>
      <text
         transform="scale(0.9486833,-1.0540926)"
         style="font-variant:normal;font-weight:500;font-stretch:normal;font-size:30.3579px;font-family:'Montserrat Medium';-inkscape-font-specification:Montserrat-Medium;writing-mode:lr-tb;fill:#21b692;fill-opacity:1;fill-rule:nonzero;stroke:none;stroke-width:0.948683"
         id="text79"
         x="-309.2775"
         y="-355.41537"><tspan
           x="-309.2775 -287.05554 -278.58569"
           y="-355.41537"
           sodipodi:role="line"
           id="tspan75"
           style="stroke-width:0.948683">Air</tspan><tspan
           x="-266.13895"
           y="-355.41537"
           id="tspan77"
           style="stroke-width:0.948683"></tspan></text>
      <text
         transform="scale(0.9486833,-1.0540926)"
         style="font-variant:normal;font-weight:bold;font-stretch:normal;font-size:30.3579px;font-family:Montserrat;-inkscape-font-specification:Montserrat-Bold;writing-mode:lr-tb;fill:#21b692;fill-opacity:1;fill-rule:nonzero;stroke:none;stroke-width:0.948683"
         id="text83"
         x="-257.97269"
         y="-355.41537"><tspan
           x="-257.97269 -232.89709 -220.08607 -200.20168 -179.04225"
           y="-355.41537"
           sodipodi:role="line"
           id="tspan81"
           style="stroke-width:0.948683">Drone</tspan></text>
      <text
         transform="scale(0.9486833,-1.0540926)"
         style="font-variant:normal;font-weight:normal;font-stretch:normal;font-size:10.4355px;font-family:Montserrat;-inkscape-font-specification:Montserrat-Regular;writing-mode:lr-tb;fill:#808184;fill-opacity:1;fill-rule:nonzero;stroke:none;stroke-width:0.948683"
         id="text87"
         x="-296.7262"
         y="-339.55777"><tspan
           x="-296.7262 -290.40228 -282.13736 -272.89148 -267.99722 -263.10297 -253.93015 -245.53999 -240.71878 -231.47292 -222.84274 -214.45259 -207.26251 -202.4413 -193.26849 -184.87833 -178.74225"
           y="-339.55777"
           sodipodi:role="line"
           id="tspan85"
           style="stroke-width:0.948683">tagline goes here</tspan></text>
      <g
         id="g89"
         transform="translate(-586.54509,68.942913)">
        <g
           id="g91"
           clip-path="url(#clipPath95)">
          <g
             id="g97"
             transform="translate(282.8564,387.625)">
            <path
               d="M 0,0 C 0,2.184 4.069,4.108 10.285,5.278 3.021,4.168 -1.802,2.22 -1.802,0 c 0,-2.219 4.821,-4.167 12.084,-5.277 C 4.068,-4.107 0,-2.182 0,0"
               style="fill:#1f3b4f;fill-opacity:1;fill-rule:nonzero;stroke:none"
               id="path99" />
          </g>
          <g
             id="g101"
             transform="translate(321.1064,392.9023)">
            <path
               d="m 0,0 c 6.211,-1.169 10.279,-3.094 10.279,-5.277 0,-2.182 -4.068,-4.107 -10.281,-5.277 7.262,1.11 12.083,3.057 12.083,5.277 C 12.081,-3.058 7.26,-1.11 0,0"
               style="fill:#1f3b4f;fill-opacity:1;fill-rule:nonzero;stroke:none"
               id="path103" />
          </g>
          <g
             id="g105"
             transform="translate(288.3838,387.6255)">
            <path
               d="M 0,0 C 0,1.641 2.706,3.103 6.934,4.062 1.405,3.177 -2.228,1.689 -2.228,0 c 0,-1.688 3.635,-3.176 9.165,-4.062 C 2.708,-3.102 0,-1.64 0,0"
               style="fill:#1f3b4f;fill-opacity:1;fill-rule:nonzero;stroke:none"
               id="path107" />
          </g>
          <g
             id="g109"
             transform="translate(328.0859,387.626)">
            <path
               d="M 0,0 C 0,1.689 -3.636,3.177 -9.165,4.062 -4.935,3.103 -2.229,1.641 -2.229,0 c 0,-1.64 -2.706,-3.103 -6.936,-4.062 C -3.636,-3.177 0,-1.688 0,0"
               style="fill:#1f3b4f;fill-opacity:1;fill-rule:nonzero;stroke:none"
               id="path111" />
          </g>
          <g
             id="g113"
             transform="translate(307.1211,391.4014)">
            <path
               d="m 0,0 c -6.802,0 -12.317,-1.69 -12.317,-3.775 0,-2.085 5.515,-3.775 12.317,-3.775 6.802,0 12.316,1.69 12.316,3.775 C 12.316,-1.69 6.802,0 0,0"
               style="fill:#6cb4b5;fill-opacity:1;fill-rule:nonzero;stroke:none"
               id="path115" />
          </g>
          <g
             id="g117"
             transform="translate(420.8818,378.4541)">
            <path
               d="m 0,0 c -16.667,0 -30.179,4.141 -30.179,9.25 0,5.109 13.512,9.25 30.179,9.25 16.668,0 30.18,-4.141 30.18,-9.25 C 30.18,4.141 16.668,0 0,0 m -69.92,9.976 c 0,0 11.573,-6.695 26.712,0 0,0 -12.417,-10.005 -26.712,0 m 58.76,-22.661 c 10.863,0 19.671,-2.7 19.671,-6.03 0,-3.33 -8.808,-6.029 -19.671,-6.029 -10.863,0 -19.671,2.699 -19.671,6.029 0,3.33 8.808,6.03 19.671,6.03 m -91.443,-12.059 c -10.863,0 -19.669,2.699 -19.669,6.029 0,3.33 8.806,6.03 19.669,6.03 10.865,0 19.671,-2.7 19.671,-6.03 0,-3.33 -8.806,-6.029 -19.671,-6.029 M -113.761,0 c -16.667,0 -30.179,4.141 -30.179,9.25 0,5.109 13.512,9.25 30.179,9.25 16.667,0 30.18,-4.141 30.18,-9.25 0,-5.109 -13.513,-9.25 -30.18,-9.25 M 0,32.598 c -17.501,0 -31.69,-4.349 -31.69,-9.714 V 21.14 C -34.631,17.737 -43.046,9.653 -56.88,9.272 -70.358,9.643 -78.854,17.324 -82.07,20.866 v 2.018 c 0,5.365 -14.19,9.714 -31.691,9.714 -17.502,0 -31.691,-4.349 -31.691,-9.714 V 8.26 h 0.005 c 0.094,-5.34 14.244,-9.659 31.686,-9.659 15.905,0 29.065,3.591 31.335,8.273 3.087,-1.652 11.695,-6.504 13.797,-10.315 1.647,-2.986 -6.978,-4.851 -13.408,-5.808 -0.956,3.225 -9.795,5.752 -20.566,5.752 -11.408,0 -20.655,-2.835 -20.655,-6.332 v -9.531 h 0.002 c 0.064,-3.48 9.285,-6.296 20.653,-6.296 11.369,0 20.59,2.816 20.654,6.296 h 0.002 v 3.597 c 5.431,1.977 10.259,3.188 14.193,3.927 -0.239,-0.915 -0.381,-1.87 -0.381,-2.859 0,-6.215 5.039,-11.253 11.255,-11.253 6.215,0 11.253,5.038 11.253,11.253 0,0.989 -0.141,1.944 -0.38,2.859 3.934,-0.739 8.76,-1.949 14.192,-3.926 v -3.598 h 0.002 c 0.063,-3.48 9.285,-6.296 20.653,-6.296 11.368,0 20.59,2.816 20.653,6.296 h 0.002 v 9.531 c 0,3.497 -9.247,6.332 -20.655,6.332 -10.77,0 -19.61,-2.527 -20.566,-5.752 -6.429,0.957 -15.052,2.822 -13.405,5.808 2.152,3.902 10.93,8.896 13.749,10.427 C -29.27,2.25 -16.031,-1.399 0,-1.399 c 17.443,0 31.592,4.319 31.687,9.659 h 0.003 v 14.624 c 0,5.365 -14.188,9.714 -31.69,9.714"
               style="fill:#1f3b4f;fill-opacity:1;fill-rule:nonzero;stroke:none"
               id="path119" />
          </g>
          <g
             id="g121"
             transform="translate(396.6162,387.625)">
            <path
               d="M 0,0 C 0,2.184 4.071,4.108 10.286,5.278 3.022,4.168 -1.801,2.22 -1.801,0 c 0,-2.219 4.822,-4.167 12.084,-5.277 C 4.07,-4.107 0,-2.182 0,0"
               style="fill:#1f3b4f;fill-opacity:1;fill-rule:nonzero;stroke:none"
               id="path123" />
          </g>
          <g
             id="g125"
             transform="translate(434.8672,392.9023)">
            <path
               d="m 0,0 c 6.211,-1.17 10.28,-3.094 10.28,-5.277 0,-2.182 -4.069,-4.107 -10.282,-5.277 7.262,1.11 12.083,3.057 12.083,5.277 C 12.081,-3.058 7.26,-1.11 0,0"
               style="fill:#1f3b4f;fill-opacity:1;fill-rule:nonzero;stroke:none"
               id="path127" />
          </g>
          <g
             id="g129"
             transform="translate(402.1455,387.6255)">
            <path
               d="M 0,0 C 0,1.641 2.705,3.103 6.933,4.061 1.403,3.177 -2.229,1.689 -2.229,0 c 0,-1.688 3.635,-3.176 9.166,-4.062 C 2.708,-3.102 0,-1.64 0,0"
               style="fill:#1f3b4f;fill-opacity:1;fill-rule:nonzero;stroke:none"
               id="path131" />
          </g>
          <g
             id="g133"
             transform="translate(441.8467,387.626)">
            <path
               d="M 0,0 C 0,1.689 -3.635,3.177 -9.166,4.062 -4.937,3.103 -2.228,1.641 -2.228,0 c 0,-1.64 -2.709,-3.103 -6.938,-4.062 C -3.635,-3.177 0,-1.688 0,0"
               style="fill:#1f3b4f;fill-opacity:1;fill-rule:nonzero;stroke:none"
               id="path135" />
          </g>
          <g
             id="g137"
             transform="translate(420.8818,391.4014)">
            <path
               d="m 0,0 c -6.802,0 -12.316,-1.69 -12.316,-3.775 0,-2.085 5.514,-3.775 12.316,-3.775 6.803,0 12.317,1.69 12.317,3.775 C 12.317,-1.69 6.803,0 0,0"
               style="fill:#6cb4b5;fill-opacity:1;fill-rule:nonzero;stroke:none"
               id="path139" />
          </g>
          <g
             id="g141"
             transform="translate(302.4639,359.688)">
            <path
               d="M 0,0 C 0,1.423 2.653,2.677 6.703,3.44 1.969,2.717 -1.174,1.447 -1.174,0 c 0,-1.447 3.143,-2.717 7.875,-3.44 C 2.652,-2.678 0,-1.423 0,0"
               style="fill:#1f3b4f;fill-opacity:1;fill-rule:nonzero;stroke:none"
               id="path143" />
          </g>
          <g
             id="g145"
             transform="translate(327.3945,363.1279)">
            <path
               d="m 0,0 c 4.049,-0.763 6.701,-2.017 6.701,-3.44 0,-1.423 -2.652,-2.678 -6.702,-3.44 4.732,0.723 7.875,1.993 7.875,3.44 C 7.874,-1.993 4.731,-0.724 0,0"
               style="fill:#1f3b4f;fill-opacity:1;fill-rule:nonzero;stroke:none"
               id="path147" />
          </g>
          <g
             id="g149"
             transform="translate(306.0674,359.688)">
            <path
               d="M 0,0 C 0,1.069 1.764,2.022 4.519,2.647 0.915,2.071 -1.452,1.101 -1.452,0 c 0,-1.1 2.368,-2.07 5.973,-2.647 C 1.765,-2.021 0,-1.069 0,0"
               style="fill:#1f3b4f;fill-opacity:1;fill-rule:nonzero;stroke:none"
               id="path151" />
          </g>
          <g
             id="g153"
             transform="translate(331.9443,359.6885)">
            <path
               d="M 0,0 C 0,1.101 -2.369,2.071 -5.974,2.647 -3.217,2.022 -1.452,1.069 -1.452,0 c 0,-1.07 -1.765,-2.022 -4.522,-2.648 C -2.369,-2.071 0,-1.101 0,0"
               style="fill:#1f3b4f;fill-opacity:1;fill-rule:nonzero;stroke:none"
               id="path155" />
          </g>
          <g
             id="g157"
             transform="translate(318.2793,362.1489)">
            <path
               d="m 0,0 c -4.434,0 -8.027,-1.101 -8.027,-2.46 0,-1.359 3.593,-2.46 8.027,-2.461 4.434,0 8.028,1.102 8.028,2.461 C 8.028,-1.101 4.434,0 0,0"
               style="fill:#6cb4b5;fill-opacity:1;fill-rule:nonzero;stroke:none"
               id="path159" />
          </g>
          <g
             id="g161"
             transform="translate(400.6074,356.2476)">
            <path
               d="m 0,0 c -4.05,0.763 -6.701,2.018 -6.701,3.44 0,1.424 2.652,2.678 6.703,3.441 C -4.732,6.158 -7.876,4.888 -7.876,3.44 -7.876,1.994 -4.732,0.724 0,0"
               style="fill:#1f3b4f;fill-opacity:1;fill-rule:nonzero;stroke:none"
               id="path163" />
          </g>
          <g
             id="g165"
             transform="translate(425.5361,359.688)">
            <path
               d="m 0,0 c 0,-1.423 -2.651,-2.678 -6.699,-3.44 4.732,0.723 7.874,1.993 7.874,3.44 0,1.447 -3.142,2.716 -7.873,3.44 C -2.651,2.677 0,1.423 0,0"
               style="fill:#1f3b4f;fill-opacity:1;fill-rule:nonzero;stroke:none"
               id="path167" />
          </g>
          <g
             id="g169"
             transform="translate(396.0576,359.688)">
            <path
               d="M 0,0 C 0,-1.1 2.368,-2.07 5.973,-2.647 3.217,-2.021 1.452,-1.069 1.452,0 1.452,1.069 3.216,2.022 5.971,2.647 2.366,2.071 0,1.101 0,0"
               style="fill:#1f3b4f;fill-opacity:1;fill-rule:nonzero;stroke:none"
               id="path171" />
          </g>
          <g
             id="g173"
             transform="translate(421.9336,359.6885)">
            <path
               d="m 0,0 c 0,-1.07 -1.765,-2.022 -4.522,-2.648 3.606,0.577 5.975,1.547 5.975,2.648 0,1.101 -2.369,2.071 -5.975,2.647 C -1.765,2.022 0,1.069 0,0"
               style="fill:#1f3b4f;fill-opacity:1;fill-rule:nonzero;stroke:none"
               id="path175" />
          </g>
          <g
             id="g177"
             transform="translate(409.7217,357.2275)">
            <path
               d="M 0,0 C 4.434,0 8.028,1.102 8.028,2.461 8.028,3.821 4.434,4.921 0,4.921 -4.435,4.922 -8.028,3.821 -8.028,2.461 -8.028,1.102 -4.435,0 0,0"
               style="fill:#6cb4b5;fill-opacity:1;fill-rule:nonzero;stroke:none"
               id="path179" />
          </g>
          <g
             id="g181"
             transform="translate(372.2529,363.873)">
            <path
               d="m 0,0 c 0,-4.581 -3.714,-8.294 -8.294,-8.294 -4.58,0 -8.293,3.713 -8.293,8.294 0,4.581 3.713,8.293 8.293,8.293 C -3.714,8.293 0,4.581 0,0"
               style="fill:#ffffff;fill-opacity:1;fill-rule:nonzero;stroke:none"
               id="path183" />
          </g>
          <g
             id="g185"
             transform="translate(366.6777,364.1606)">
            <path
               d="m 0,0 c -1.456,0 -2.636,1.18 -2.636,2.636 0,0.87 0.427,1.635 1.077,2.115 -0.373,0.085 -0.76,0.135 -1.16,0.135 -2.858,0 -5.174,-2.316 -5.174,-5.174 0,-2.858 2.316,-5.174 5.174,-5.174 2.859,0 5.175,2.316 5.175,5.174 0,0.532 -0.08,1.044 -0.228,1.527 C 1.761,0.497 0.94,0 0,0"
               style="fill:#6cb4b5;fill-opacity:1;fill-rule:nonzero;stroke:none"
               id="path187" />
          </g>
        </g>
      </g>
      <text
         transform="scale(0.9486833,-1.0540926)"
         style="font-variant:normal;font-weight:bold;font-stretch:normal;font-size:30.3579px;font-family:Montserrat;-inkscape-font-specification:Montserrat-Bold;writing-mode:lr-tb;fill:#15aee5;fill-opacity:1;fill-rule:nonzero;stroke:none;stroke-width:0.948683"
         id="text191"
         x="-455.45743"
         y="-122.99644"><tspan
           x="-455.45743 -430.38184 -417.5708 -397.6864"
           y="-122.99644"
           sodipodi:role="line"
           id="tspan189"
           style="stroke-width:0.948683">Dron</tspan></text>
      <text
         transform="scale(0.9486833,-1.0540926)"
         style="font-variant:normal;font-weight:500;font-stretch:normal;font-size:30.3579px;font-family:'Montserrat Medium';-inkscape-font-specification:Montserrat-Medium;writing-mode:lr-tb;fill:#000000;fill-opacity:1;fill-rule:nonzero;stroke:none;stroke-width:0.948683"
         id="text195"
         x="-376.70911"
         y="-122.99644"><tspan
           x="-376.70911 -356.00507 -335.24026 -315.96304 -303.94131"
           y="-122.99644"
           sodipodi:role="line"
           id="tspan193"
           style="stroke-width:0.948683">photo</tspan></text>
      <text
         transform="scale(0.9486833,-1.0540926)"
         style="font-variant:normal;font-weight:normal;font-stretch:normal;font-size:10.4355px;font-family:Montserrat;-inkscape-font-specification:Montserrat-Regular;writing-mode:lr-tb;fill:#808184;fill-opacity:1;fill-rule:nonzero;stroke:none;stroke-width:0.948683"
         id="text199"
         x="-432.20468"
         y="-107.13796"><tspan
           x="-432.20468 -425.88074 -417.61581 -408.36993 -403.47568 -398.58142 -389.4086 -381.01846 -376.19727 -366.95139 -358.32123 -349.93106 -342.741 -337.91977 -328.74695 -320.35681 -314.22073"
           y="-107.13796"
           sodipodi:role="line"
           id="tspan197"
           style="stroke-width:0.948683">tagline goes here</tspan></text>
      <g
         id="g201"
         transform="translate(-483.66105,33.941126)">
        <g
           id="g203"
           clip-path="url(#clipPath207)">
          <g
             id="g209"
             transform="translate(179.4941,149.9863)">
            <path
               d="m 0,0 -27.365,8.908 2.699,1.35 26.567,-9.499 z m -28.482,12.726 c -1.934,-1.955 -20.644,-1.511 -20.644,-1.511 0,0 -18.71,-0.444 -20.644,1.511 -1.83,1.846 1.557,12.16 4.364,15.171 0,0 -5.991,-12.732 -2.584,-13.526 3.49,-0.812 18.864,-1.227 18.864,-1.227 0,0 15.374,0.415 18.864,1.227 3.408,0.794 -2.584,13.526 -2.584,13.526 2.807,-3.011 6.193,-13.325 4.364,-15.171 M -97.113,0 l -1.902,0.759 26.568,9.499 2.699,-1.35 z m 4.518,43.727 1.121,0.614 21.923,-11.759 -1.373,-1.566 z m 85.923,0.614 1.121,-0.614 -21.671,-13.136 -1.939,1.708 z M 39.933,15.364 C 36.845,14.129 24.782,8.344 22.911,7.445 c -0.806,2.419 -2.236,4.622 -3.202,4.048 0,0 -1.296,-1.397 -2.486,-4.915 C 17.138,6.327 17.074,6.094 17.025,5.873 16.069,5.646 13.767,5.034 10.481,3.72 l -32.573,13.092 c -0.043,0.371 -0.104,0.762 -0.184,1.177 -0.82,4.224 -2.198,7.648 -3.889,10.147 l 24.514,16.073 -0.022,0.048 c 0.24,-0.032 0.495,-0.053 0.784,-0.048 3.134,0.052 3.657,0.825 3.917,2.288 0.208,1.168 0.084,5.103 0.026,6.645 0.815,-0.787 1.62,-1.499 2.168,-1.935 2.037,-1.619 10.757,-2.611 12.376,-2.507 1.619,0.105 -2.977,2.872 -8.094,5.379 -4.147,2.031 -7.092,2.827 -8.061,3.057 -0.035,0.154 -0.079,0.318 -0.138,0.494 -0.835,2.467 -1.743,3.447 -1.743,3.447 -0.678,0.403 -1.681,-1.142 -2.247,-2.839 -1.312,0.631 -9.772,4.688 -11.937,5.554 -2.351,0.939 -2.663,0.418 -0.888,-1.253 1.776,-1.671 6.319,-5.536 8.042,-5.536 1.392,0 3.638,-0.106 4.451,-0.147 -0.041,-0.301 -0.047,-0.56 -0.013,-0.768 -0.003,-10e-4 -0.005,-10e-4 -0.008,-0.002 0,0 -1.141,-0.232 -1.141,-1.485 V 48.6 L -34.052,35.176 c -2.005,1.095 -5.775,1.96 -14.858,1.96 -8.621,0 -12.796,-0.78 -15.227,-1.795 L -93.643,48.6 v 6.001 c 0,1.253 -1.14,1.485 -1.14,1.485 -0.003,0.001 -0.005,0.001 -0.008,0.002 0.034,0.208 0.027,0.467 -0.014,0.768 0.814,0.041 3.061,0.147 4.451,0.147 1.724,0 6.267,3.865 8.042,5.536 1.776,1.671 1.463,2.192 -0.887,1.253 -2.166,-0.866 -10.625,-4.923 -11.938,-5.554 -0.565,1.697 -1.568,3.242 -2.246,2.839 0,0 -0.908,-0.98 -1.743,-3.447 -0.06,-0.176 -0.104,-0.34 -0.139,-0.494 -0.968,-0.23 -3.914,-1.026 -8.06,-3.057 -5.117,-2.507 -9.713,-5.274 -8.094,-5.379 1.619,-0.104 10.339,0.888 12.376,2.507 0.548,0.436 1.353,1.148 2.168,1.935 -0.059,-1.542 -0.183,-5.477 0.025,-6.645 0.261,-1.463 0.784,-2.236 3.917,-2.288 0.289,-0.005 0.545,0.016 0.787,0.048 l -0.023,-0.048 23.84,-15.632 c -1.34,-2.423 -2.249,-5.887 -3.215,-10.588 -0.086,-0.417 -0.15,-0.809 -0.197,-1.182 L -108.302,3.72 c -3.285,1.314 -5.588,1.926 -6.544,2.153 -0.049,0.221 -0.112,0.454 -0.197,0.705 -1.19,3.518 -2.486,4.915 -2.486,4.915 -0.966,0.574 -2.397,-1.629 -3.202,-4.048 -1.872,0.899 -13.934,6.684 -17.022,7.919 -3.351,1.34 -3.797,0.596 -1.266,-1.787 2.532,-2.383 9.01,-7.892 11.467,-7.892 1.976,0 5.156,-0.149 6.33,-0.207 -0.061,-0.438 -0.061,-0.799 -0.014,-1.101 0,0 -1.625,-0.33 -1.625,-2.117 V -9.356 c 0,0 0.222,-3.276 4.69,-3.202 4.468,0.075 5.213,1.178 5.585,3.262 0.091,0.511 0.137,1.396 0.155,2.437 l 7.803,2.419 c 4.781,-1.171 11.219,-1.817 12.815,-1.713 1.55,0.099 -0.901,1.912 -4.881,4.173 l 29.92,9.276 c 1.301,-0.26 2.772,-0.463 4.297,-0.621 v -8.424 c 0,-2.246 1.147,-4.237 2.883,-5.419 1.821,-4.093 5.915,-6.95 10.684,-6.95 4.769,0 8.865,2.858 10.685,6.953 1.735,1.182 2.88,3.172 2.88,5.417 v 8.423 c 1.526,0.158 2.997,0.361 4.299,0.621 l 29.92,-9.276 c -3.98,-2.261 -6.432,-4.074 -4.882,-4.173 1.597,-0.104 8.034,0.542 12.816,1.713 l 7.802,-2.419 c 0.019,-1.041 0.065,-1.926 0.156,-2.437 0.372,-2.084 1.117,-3.187 5.585,-3.262 4.467,-0.074 4.69,3.202 4.69,3.202 V 2.26 c 0,1.787 -1.625,2.117 -1.625,2.117 0.047,0.302 0.047,0.663 -0.015,1.101 1.174,0.058 4.355,0.207 6.33,0.207 2.457,0 8.936,5.509 11.467,7.892 2.531,2.383 2.085,3.127 -1.265,1.787"
               style="fill:#1f3b4f;fill-opacity:1;fill-rule:nonzero;stroke:none"
               id="path211" />
          </g>
          <g
             id="g213"
             transform="translate(139.0527,147.5654)">
            <path
               d="m 0,0 c 0,-4.677 -3.791,-8.468 -8.469,-8.468 -4.677,0 -8.468,3.791 -8.468,8.468 0,4.677 3.791,8.468 8.468,8.468 C -3.791,8.468 0,4.677 0,0"
               style="fill:#ffffff;fill-opacity:1;fill-rule:nonzero;stroke:none"
               id="path215" />
          </g>
          <g
             id="g217"
             transform="translate(133.3604,147.8594)">
            <path
               d="m 0,0 c -1.487,0 -2.691,1.205 -2.691,2.691 0,0.886 0.433,1.665 1.093,2.156 -0.38,0.087 -0.772,0.142 -1.178,0.142 -2.917,0 -5.283,-2.364 -5.283,-5.283 0,-2.919 2.366,-5.282 5.283,-5.282 2.919,0 5.284,2.363 5.284,5.282 0,0.535 -0.104,1.041 -0.251,1.528 C 1.777,0.493 0.947,0 0,0"
               style="fill:#15aee5;fill-opacity:1;fill-rule:nonzero;stroke:none"
               id="path219" />
          </g>
        </g>
      </g>
      <g
         id="g233"
         transform="matrix(3.4152498,0,0,3.4152498,-985.16666,-109.50496)">
        <g
           id="g235"
           clip-path="url(#clipPath239)">
          <g
             id="g241"
             transform="translate(310.9395,200.0977)">
            <path
               d="m 0,0 -6.204,-5.117 -24.969,3.721 -1.861,2.172 z"
               style="fill:#6cb4b5;fill-opacity:1;fill-rule:nonzero;stroke:none"
               id="path243" />
          </g>
          <g
             id="g245"
             transform="translate(317.1445,200.0977)">
            <path
               d="m 0,0 6.204,-5.117 24.969,3.721 1.861,2.172 z"
               style="fill:#6cb4b5;fill-opacity:1;fill-rule:nonzero;stroke:none"
               id="path247" />
          </g>
          <g
             id="g249"
             transform="translate(405.5439,200.0977)">
            <path
               d="m 0,0 -6.204,-5.117 -24.97,3.721 -1.86,2.172 z"
               style="fill:#6cb4b5;fill-opacity:1;fill-rule:nonzero;stroke:none"
               id="path251" />
          </g>
          <g
             id="g253"
             transform="translate(411.749,200.0977)">
            <path
               d="m 0,0 6.204,-5.117 24.969,3.721 1.861,2.172 z"
               style="fill:#6cb4b5;fill-opacity:1;fill-rule:nonzero;stroke:none"
               id="path255" />
          </g>
          <path
             d="m 346.043,149.866 h 3.563 v 7.232 h -3.563 z"
             style="fill:#1f3b4f;fill-opacity:1;fill-rule:nonzero;stroke:none"
             id="path257" />
          <path
             d="m 373.082,149.866 h 3.563 v 7.232 h -3.563 z"
             style="fill:#1f3b4f;fill-opacity:1;fill-rule:nonzero;stroke:none"
             id="path259" />
          <g
             id="g261"
             transform="translate(325.874,187.0039)">
            <path
               d="M 0,0 C 0,0 36.685,4.199 70.939,0 70.939,0 26.238,0.822 0,0 m 41.818,-33.482 c 0,-3.507 -2.842,-6.349 -6.348,-6.349 -3.507,0 -6.349,2.842 -6.349,6.349 0,3.506 2.842,6.348 6.349,6.348 3.506,0 6.348,-2.842 6.348,-6.348 m 55.996,30.293 c -0.494,2.963 -4.433,3.075 -9.071,3.155 v 13.18 c 0,2.531 -2.07,4.601 -4.6,4.601 h -2.742 c -2.53,0 -4.6,-2.07 -4.6,-4.601 V 1.72 c -3.062,0.935 -5.352,1.914 -5.352,1.914 0,0 -11.354,1.435 -35.979,1.552 C 10.844,5.069 -0.511,3.634 -0.511,3.634 c 0,0 -2.29,-0.979 -5.35,-1.914 v 11.426 c 0,2.531 -2.071,4.601 -4.601,4.601 h -2.74 c -2.53,0 -4.601,-2.07 -4.601,-4.601 v -13.18 c -4.638,-0.08 -8.579,-0.192 -9.072,-3.155 -0.62,-3.723 3.411,-4.498 3.411,-4.498 h 11.166 c 0,0 8.921,-4.137 17.039,-7.905 -3.64,-7.596 -8.171,-19.689 -10.532,-26.179 -3.159,0.21 -5.98,-2.062 -6.397,-5.243 -0.433,-3.313 1.902,-6.349 5.215,-6.783 3.312,-0.432 6.347,1.901 6.781,5.213 0.241,1.844 -0.376,3.601 -1.54,4.871 3.609,6.798 10.981,22.608 11.359,23.565 0.131,0.333 0.778,0.896 1.631,1.531 1.811,-0.841 3.38,-1.57 4.515,-2.098 6.669,-3.1 9.461,-3.412 9.461,-3.412 h 7.039 v -1.901 h -5.325 c -1.135,0 -2.063,-0.929 -2.063,-2.064 v -11.279 c 0,-1.135 0.928,-2.064 2.063,-2.064 H 43.99 c 1.135,0 2.064,0.929 2.064,2.064 v 11.279 c 0,1.135 -0.929,2.064 -2.064,2.064 h -5.325 v 1.901 h 7.039 c 0,0 2.792,0.312 9.462,3.412 1.136,0.528 2.704,1.257 4.515,2.098 0.853,-0.635 1.501,-1.198 1.632,-1.531 0.377,-0.957 7.75,-16.768 11.359,-23.565 -1.164,-1.271 -1.781,-3.027 -1.54,-4.871 0.433,-3.312 3.468,-5.645 6.78,-5.213 3.313,0.434 5.649,3.47 5.215,6.783 -0.417,3.181 -3.236,5.453 -6.397,5.243 -2.361,6.49 -6.891,18.584 -10.532,26.179 8.118,3.768 17.038,7.905 17.038,7.905 h 11.166 c 0,0 4.033,0.775 3.412,4.498"
               style="fill:#1f3b4f;fill-opacity:1;fill-rule:nonzero;stroke:none"
               id="path263" />
          </g>
          <g
             id="g265"
             transform="translate(363.4248,153.7422)"
             style="fill:#e27d60;fill-opacity:1">
            <path
               d="m 0,0 c -1.115,0 -2.018,0.903 -2.018,2.018 0,0.664 0.326,1.248 0.821,1.615 -0.285,0.065 -0.579,0.107 -0.884,0.107 -2.189,0 -3.961,-1.773 -3.961,-3.961 0,-2.187 1.772,-3.96 3.961,-3.96 2.187,0 3.961,1.773 3.961,3.96 0,0.402 -0.077,0.782 -0.189,1.147 C 1.332,0.369 0.71,0 0,0"
               style="fill:#e27d60;fill-opacity:1;fill-rule:nonzero;stroke:none"
               id="path267" />
          </g>
        </g>
      </g>
    </g>
  </g>
</svg>
